HIERARCHY
ROOT Hips
{
	OFFSET 0.000000 0.000000 0.000000
	CHANNELS 6 Xposition Yposition Zposition Xrotation Yrotation Zrotation
	JOINT LeftUpLeg_virtual
	{
		OFFSET 0.000000 0.000000 0.000000
		CHANNELS 3 Xrotation Yrotation Zrotation
		JOINT LeftUpLeg
		{
			OFFSET 11.394100 -6.187798 -0.413800
			CHANNELS 3 Xrotation Yrotation Zrotation
			JOINT LeftLeg
			{
				OFFSET 0.430247 -32.302673 3.732800
				CHANNELS 3 Xrotation Yrotation Zrotation
				JOINT LeftFoot
				{
					OFFSET -0.430247 -48.264931 -6.423300
					CHANNELS 3 Xrotation Yrotation Zrotation
					JOINT LeftToeBase
					{
						OFFSET 4.230900 -16.068199 23.438400
						CHANNELS 3 Xrotation Yrotation Zrotation
						JOINT LeftToe_End
						{
							OFFSET 4.510700 0.695400 19.974600
							CHANNELS 3 Xrotation Yrotation Zrotation
							End Site
							{
								OFFSET 0 0 0
							}
						}
					}
				}
			}
		}
	}
	JOINT RightUpLeg_virtual
	{
		OFFSET 0.000000 0.000000 0.000000
		CHANNELS 3 Xrotation Yrotation Zrotation
		JOINT RightUpLeg
		{
			OFFSET -11.333700 -6.187798 -0.413800
			CHANNELS 3 Xrotation Yrotation Zrotation
			JOINT RightLeg
			{
				OFFSET -0.430392 -32.302628 3.733000
				CHANNELS 3 Xrotation Yrotation Zrotation
				JOINT RightFoot
				{
					OFFSET 0.430392 -48.264973 -6.423500
					CHANNELS 3 Xrotation Yrotation Zrotation
					JOINT RightToeBase
					{
						OFFSET -4.230900 -16.068199 23.438400
						CHANNELS 3 Xrotation Yrotation Zrotation
						JOINT RightToe_End
						{
							OFFSET -4.510700 0.695400 19.974600
							CHANNELS 3 Xrotation Yrotation Zrotation
							End Site
							{
								OFFSET 0 0 0
							}
						}
					}
				}
			}
		}
	}
	JOINT Spine_virtual
	{
		OFFSET 0.000000 0.000000 0.000000
		CHANNELS 3 Xrotation Yrotation Zrotation
		JOINT Spine
		{
			OFFSET -0.002400 12.777504 0.315300
			CHANNELS 3 Xrotation Yrotation Zrotation
			JOINT Spine1
			{
				OFFSET -0.002067 5.816869 0.032633
				CHANNELS 3 Xrotation Yrotation Zrotation
				JOINT Spine1_split
				{
					OFFSET -0.002067 5.816869 0.032633
					CHANNELS 3 Xrotation Yrotation Zrotation
					JOINT Spine2
					{
						OFFSET -0.002067 5.816869 0.032633
						CHANNELS 3 Xrotation Yrotation Zrotation
						JOINT Neck_virtual
						{
							OFFSET 0.000000 0.000000 0.000000
							CHANNELS 3 Xrotation Yrotation Zrotation
							JOINT Neck
							{
								OFFSET -0.003700 21.199493 -0.826900
								CHANNELS 3 Xrotation Yrotation Zrotation
								JOINT Head
								{
									OFFSET 0.000000 20.442200 4.834800
									CHANNELS 3 Xrotation Yrotation Zrotation
									JOINT HeadTop_End
									{
										OFFSET 0.000000 34.668396 4.968400
										CHANNELS 3 Xrotation Yrotation Zrotation
										End Site
										{
											OFFSET 0 0 0
										}
									}
								}
							}
						}
						JOINT LeftShoulder_virtual
						{
							OFFSET 0.000000 0.000000 0.000000
							CHANNELS 3 Xrotation Yrotation Zrotation
							JOINT LeftShoulder
							{
								OFFSET 3.288150 8.794197 -1.372250
								CHANNELS 3 Xrotation Yrotation Zrotation
								JOINT LeftShoulder_split
								{
									OFFSET 3.288150 8.794197 -1.372250
									CHANNELS 3 Xrotation Yrotation Zrotation
									JOINT LeftArm
									{
										OFFSET 11.953299 -2.279007 -0.146200
										CHANNELS 3 Xrotation Yrotation Zrotation
										JOINT LeftForeArm
										{
											OFFSET 18.448900 0.000000 0.000000
											CHANNELS 3 Xrotation Yrotation Zrotation
											JOINT LeftHand
											{
												OFFSET 29.527798 0.000000 0.000000
												CHANNELS 3 Xrotation Yrotation Zrotation
												End Site
												{
													OFFSET 0 0 0
												}
											}
										}
									}
								}
							}
						}
						JOINT RightShoulder_virtual
						{
							OFFSET 0.000000 0.000000 0.000000
							CHANNELS 3 Xrotation Yrotation Zrotation
							JOINT RightShoulder
							{
								OFFSET -3.249400 8.794197 -1.372250
								CHANNELS 3 Xrotation Yrotation Zrotation
								JOINT RightShoulder_split
								{
									OFFSET -3.249400 8.794197 -1.372250
									CHANNELS 3 Xrotation Yrotation Zrotation
									JOINT RightArm
									{
										OFFSET -11.953299 -2.279007 -0.146200
										CHANNELS 3 Xrotation Yrotation Zrotation
										JOINT RightForeArm
										{
											OFFSET -18.448900 0.000000 0.000000
											CHANNELS 3 Xrotation Yrotation Zrotation
											JOINT RightHand
											{
												OFFSET -29.527802 0.000000 0.000000
												CHANNELS 3 Xrotation Yrotation Zrotation
												End Site
												{
													OFFSET 0 0 0
												}
											}
										}
									}
								}
							}
						}
					}
				}
			}
		}
	}
}
MOTION
Frames: 7
Frame Time: 0.03333333
2.288068 94.958687 2.052032 0.000000 0.000000 0.000000 -10.385338 11.671205 -2.943960 -42.876543 24.989973 16.685679 41.432781 5.784410 5.935228 8.530764 -15.848013 -0.998239 -7.076758 2.895035 0.943456 0.000000 0.000000 0.000000 -10.019972 13.500015 -3.151053 -22.606193 -21.345122 -2.955600 28.009064 4.683776 -2.602293 4.320602 4.855648 0.959292 0.607224 -7.003709 -36.820430 0.000000 0.000000 0.000000 -10.191434 15.859341 -4.434913 5.974420 0.506551 5.252956 4.926448 1.028077 0.567056 0.078342 -0.191475 -0.025452 0.000000 0.000000 0.000000 3.963862 4.341309 0.990254 19.242998 7.649697 0.344470 5.303983 -58.029615 -7.074018 0.000000 0.000000 0.000000 3.769394 2.155812 -0.881886 2.596755 4.764217 -9.084669 3.976989 -1.784648 -0.673730 78.981876 -66.007754 5.710976 2.546030 -17.881171 8.828988 0.000000 0.000000 0.000000 4.999032 2.679883 0.692695 -3.163446 -9.304838 5.535505 6.651560 -1.967670 0.838794 10.648551 43.014595 59.978077 -1.136641 12.017030 -7.928364 0.000000 0.000000 0.000000 
2.299311 94.951950 2.057762 0.000000 0.000000 0.000000 -10.379166 11.619724 -2.912174 -42.844243 25.059201 16.696823 41.428424 5.777667 5.919173 8.497298 -15.839038 -1.004228 -7.070753 2.892095 0.963737 0.000000 0.000000 0.000000 -10.017716 13.434196 -3.117798 -22.683248 -21.184921 -2.968433 28.046179 4.680004 -2.605404 4.330402 4.829749 0.955798 0.641792 -7.020553 -36.729680 0.000000 0.000000 0.000000 -10.190175 15.801921 -4.402269 5.960872 0.511425 5.251392 4.913884 1.038090 0.561798 0.078530 -0.190644 -0.025651 0.000000 0.000000 0.000000 3.944500 4.353629 0.987422 19.252802 7.656749 0.319350 5.286943 -58.016959 -7.104188 0.000000 0.000000 0.000000 3.755022 2.165395 -0.885483 2.593335 4.759995 -9.126023 4.003731 -1.771615 -0.670281 78.822910 -65.942068 5.618377 2.607064 -17.971807 8.879073 0.000000 0.000000 0.000000 4.981851 2.691927 0.690354 -3.172682 -9.292699 5.485797 6.657849 -1.964310 0.852396 10.646221 43.010097 59.969723 -1.123177 12.016358 -7.914315 0.000000 0.000000 0.000000 
2.306495 94.938652 2.061993 0.000000 0.000000 0.000000 -10.375590 11.568913 -2.875276 -42.809375 25.109439 16.699862 41.424302 5.769653 5.900501 8.469112 -15.824853 -0.999329 -7.069935 2.893556 0.968718 0.000000 0.000000 0.000000 -10.019676 13.370159 -3.079042 -22.779258 -21.019320 -2.993346 28.110904 4.687610 -2.605863 4.351435 4.826968 0.960176 0.643059 -7.025854 -36.642421 0.000000 0.000000 0.000000 -10.197427 15.754750 -4.361612 5.949524 0.514050 5.242254 4.903534 1.042994 0.557867 0.078689 -0.189861 -0.026474 0.000000 0.000000 0.000000 3.925981 4.361240 0.985187 19.281889 7.659834 0.293949 5.270637 -57.979721 -7.153672 0.000000 0.000000 0.000000 3.745174 2.169281 -0.887671 2.587816 4.751212 -9.163800 4.040609 -1.761773 -0.665158 78.564230 -65.877578 5.441980 2.668711 -18.069395 8.927967 0.000000 0.000000 0.000000 4.968292 2.699606 0.690233 -3.177574 -9.272421 5.461474 6.665202 -1.962656 0.860497 10.688493 42.995330 59.912002 -1.091872 12.058252 -7.907243 0.000000 0.000000 0.000000 
2.308692 94.917114 2.063869 0.000000 0.000000 0.000000 -10.375876 11.524205 -2.835250 -42.780678 25.138212 16.699100 41.429465 5.757114 5.880552 8.451174 -15.807909 -0.985035 -7.074393 2.900249 0.956106 0.000000 0.000000 0.000000 -10.025685 13.317990 -3.037226 -22.889888 -20.865255 -3.033515 28.203333 4.709479 -2.602881 4.377394 4.853569 0.979506 0.612184 -7.017814 -36.573973 0.000000 0.000000 0.000000 -10.213483 15.723113 -4.315273 5.940402 0.514413 5.225509 4.896300 1.042843 0.555521 0.078901 -0.189943 -0.027337 0.000000 0.000000 0.000000 3.908940 4.364065 0.983670 19.332536 7.656853 0.272002 5.247949 -57.932415 -7.217572 0.000000 0.000000 0.000000 3.739519 2.168347 -0.888397 2.580863 4.739742 -9.193862 4.086824 -1.759472 -0.658205 78.245213 -65.819719 5.207493 2.729243 -18.165204 8.973398 0.000000 0.000000 0.000000 4.958905 2.703145 0.692371 -3.178757 -9.249592 5.462446 6.674400 -1.956779 0.863271 10.770139 42.971903 59.819056 -1.042804 12.130297 -7.906607 0.000000 0.000000 0.000000 
2.305310 94.889816 2.065094 0.000000 0.000000 0.000000 -10.379382 11.492213 -2.794858 -42.764129 25.147537 16.698100 41.448371 5.741024 5.859548 8.443517 -15.790004 -0.962525 -7.078733 2.911754 0.927724 0.000000 0.000000 0.000000 -10.033430 13.284665 -2.996490 -23.000823 -20.734760 -3.085991 28.315572 4.740605 -2.595545 4.400475 4.906130 1.018271 0.561159 -6.998185 -36.534067 0.000000 0.000000 0.000000 -10.237176 15.708298 -4.267784 5.933238 0.512430 5.203808 4.891924 1.039288 0.555291 0.078712 -0.189771 -0.028351 0.000000 0.000000 0.000000 3.893716 4.363244 0.983361 19.404294 7.646346 0.254831 5.211149 -57.885976 -7.293267 0.000000 0.000000 0.000000 3.736519 2.164738 -0.887212 2.573393 4.727606 -9.214069 4.136701 -1.764450 -0.652953 77.910800 -65.770186 4.947388 2.786398 -18.252212 9.013434 0.000000 0.000000 0.000000 4.953844 2.704091 0.696413 -3.177585 -9.229045 5.487620 6.686298 -1.945399 0.861837 10.883377 42.939965 59.701024 -0.976941 12.220543 -7.911023 0.000000 0.000000 0.000000 
2.297792 94.859970 2.063778 0.000000 0.000000 0.000000 -10.384549 11.477148 -2.757969 -42.761089 25.142555 16.699992 41.477140 5.722764 5.838546 8.444525 -15.771522 -0.935011 -7.074517 2.927454 0.887399 0.000000 0.000000 0.000000 -10.040546 13.277574 -2.960737 -23.096845 -20.631727 -3.142820 28.433017 4.771824 -2.583183 4.412783 4.972268 1.068838 0.509934 -6.972733 -36.523129 0.000000 0.000000 0.000000 -10.265145 15.707446 -4.224158 5.927201 0.508377 5.180921 4.890091 1.034104 0.557607 0.078170 -0.189463 -0.028067 0.000000 0.000000 0.000000 3.881246 4.360587 0.984836 19.493358 7.627086 0.241788 5.151601 -57.852577 -7.379891 0.000000 0.000000 0.000000 3.734533 2.160726 -0.883714 2.566826 4.718670 -9.224900 4.183496 -1.778638 -0.654239 77.597895 -65.725408 4.694490 2.836822 -18.326721 9.045346 0.000000 0.000000 0.000000 4.952093 2.704018 0.702315 -3.174870 -9.214546 5.532875 6.697464 -1.928744 0.859177 11.022526 42.897273 59.563232 -0.898455 12.324377 -7.918631 0.000000 0.000000 0.000000 
2.287508 94.831909 2.060307 0.000000 0.000000 0.000000 -10.390267 11.483908 -2.727893 -42.772694 25.129212 16.705818 41.507814 5.704174 5.818714 8.449331 -15.754364 -0.908158 -7.061017 2.945350 0.843184 0.000000 0.000000 0.000000 -10.043231 13.298214 -2.932999 -23.166058 -20.554348 -3.194600 28.533651 4.792667 -2.565749 4.405513 5.034725 1.120417 0.475876 -6.947986 -36.534402 0.000000 0.000000 0.000000 -10.290109 15.722305 -4.189885 5.920344 0.502244 5.161104 4.888642 1.029611 0.562194 0.077390 -0.188509 -0.027759 0.000000 0.000000 0.000000 3.871969 4.358291 0.988536 19.591783 7.599625 0.229518 5.066895 -57.835364 -7.474213 0.000000 0.000000 0.000000 3.732181 2.158624 -0.877650 2.562662 4.716384 -9.229866 4.214179 -1.788895 -0.669059 77.331579 -65.680588 4.474617 2.875753 -18.388789 9.067031 0.000000 0.000000 0.000000 4.951185 2.704686 0.709874 -3.171897 -9.207224 5.592171 6.707344 -1.904917 0.861282 11.184604 42.842601 59.408760 -0.811500 12.437970 -7.927123 0.000000 0.000000 0.000000 
